# xmcd CD database file
#
# Track frame offsets:
#	150
#	13009
#	24852
#	41862
#	56877
#	68845
#	82645
#	98992
#	112057
#	125472
#
# Disc length: 1860 seconds
#
# Revision: 1
# Processed by: cddbd v1.5PL3 Copyright (c) Steve Scherf et al.
# Submitted via: jetAudio 5
#
DISCID=7e07420a
DTITLE=Inger Nordström - All Alone Together
DYEAR=1900
DGENRE=
TTITLE0=Ding-Dong
TTITLE1=Give My Broken Heart A Break
TTITLE2=Red Wine Valentine
TTITLE3=It Ain't All Over, Over Here
TTITLE4=Too Soon To Say It's Too Late
TTITLE5=In A Tear Or Two
TTITLE6=All Alone Together
TTITLE7=Talk To Me Lonesome Heart
TTITLE8=Wearin' My Inside Out
TTITLE9=A Mess Of Blues
EXTD=
EXTT0=
EXTT1=
EXTT2=
EXTT3=
EXTT4=
EXTT5=
EXTT6=
EXTT7=
EXTT8=
EXTT9=
PLAYORDER=
